#!OML:ASF E:\emotionWalksFemale\Project 1\Capture day 1\Session 1\Female1.ASF
:FULLY-SPECIFIED
:DEGREES
1042
root 9.60601 15.3163 -36.8865 -349.612 -61.8053 -5.52104
lowerback 9.98002 0.761021 2.544
upperback -1.3521 1.40412 1.17596
thorax -7.00325 0.607499 -0.417159
lowerneck -4.28101 14.1409 8.58139
upperneck 3.79082 18.8421 -7.98233
head 3.3665 9.27427 -2.69094
rclavicle -6.36608e-014 -5.76476e-015
rhumerus -18.307 34.4197 -108.736
rradius 31.8253
rwrist 17.5024
rhand -5.42254 -58.0024
rfingers 7.12502
rthumb 20.3874 -446.952
lclavicle -6.36608e-014 -5.76476e-015
lhumerus -50.6941 -55.3049 139.652
lradius 103.442
lwrist 20.9455
lhand 27.9281 -24.7356
lfingers 7.12502
lthumb 51.8349 -4.53244
rfemur -13.0496 3.57201 29.7977
rtibia 27.577
rfoot -25.6403 -35.8498
rtoes 24.3865
lfemur -23.5729 2.24928 -20.5521
ltibia 50.5871
lfoot -26.7225 9.3683
ltoes -20.9591
1043
root 9.61221 15.3203 -36.9112 -349.852 -60.4446 -5.13101
lowerback 9.77936 1.12038 3.00553
upperback -1.42413 1.89942 0.614524
thorax -6.91924 0.822 -1.3401
lowerneck -4.88022 13.4172 9.74037
upperneck 4.26972 17.7413 -7.64405
head 3.58825 8.73808 -2.78169
rclavicle 2.96686e-014 5.1684e-015
rhumerus -17.7425 32.6715 -108.785
rradius 31.9252
rwrist 17.6638
rhand -5.49518 -57.1352
rfingers 7.12502
rthumb 20.3176 -446.092
lclavicle 2.96686e-014 5.1684e-015
lhumerus -53.3113 -58.7964 141.197
lradius 103.451
lwrist 22.4305
lhand 25.5408 -24.9331
lfingers 7.12502
lthumb 49.6572 -3.53227
rfemur -13.2398 2.96363 29.8495
rtibia 27.5519
rfoot -26.8882 -35.8732
rtoes 27.3976
lfemur -23.4631 2.72324 -20.8135
ltibia 50.7144
lfoot -26.9467 10.7176
ltoes -20.467
1044
root 9.62155 15.3169 -36.9375 -350.049 -59.0632 -4.8237
lowerback 9.73702 1.06169 3.02119
upperback -1.57183 1.83182 0.70659
thorax -7.05807 0.786568 -1.24263
lowerneck -5.04593 13.0428 9.51054
upperneck 4.58212 17.2277 -7.28123
head 3.61489 8.48771 -2.67335
rclavicle 6.39838e-015 -2.48481e-015
rhumerus -18.0507 33.0299 -108.959
rradius 32.1624
rwrist 17.4135
rhand -5.20178 -56.6884
rfingers 7.12502
rthumb 20.5995 -445.615
lclavicle 6.39838e-015 -2.48481e-015
lhumerus -53.546 -58.7701 141.642
lradius 103.396
lwrist 22.2623
lhand 25.46 -25.3872
lfingers 7.12502
lthumb 49.5832 -3.94838
rfemur -13.4244 2.46265 29.9562
rtibia 27.5539
rfoot -27.9354 -36.0569
rtoes 29.8518
lfemur -23.3135 3.34917 -20.9984
ltibia 50.6234
lfoot -27.1174 11.1411
ltoes -17.4201
1045
root 9.63178 15.3178 -36.9696 -350.278 -57.8831 -4.68078
lowerback 9.97241 1.0923 3.16415
upperback -1.66206 1.90121 0.688053
thorax -7.28154 0.809148 -1.36051
lowerneck -5.25663 12.6127 9.33595
upperneck 4.81645 16.6189 -6.82912
head 3.61712 8.19423 -2.5538
rclavicle -3.30231e-014 -4.87022e-015
rhumerus -18.1442 33.117 -109.141
rradius 32.2716
rwrist 17.1893
rhand -4.84272 -56.0768
rfingers 7.12502
rthumb 20.9445 -444.966
lclavicle -3.30231e-014 -4.87022e-015
lhumerus -54.2705 -58.6805 142.436
lradius 103.347
lwrist 22.0386
lhand 25.937 -25.3663
lfingers 7.12502
lthumb 50.02 -4.15406
rfemur -13.4501 2.04654 30.1395
rtibia 27.6032
rfoot -28.1561 -36.5565
rtoes 30.689
lfemur -22.9213 3.79444 -21.0604
ltibia 50.4613
lfoot -27.5827 11.4122
ltoes -14.1281
1046
root 9.63637 15.3236 -36.9885 -350.312 -56.8178 -4.46906
lowerback 9.72078 1.1302 2.77492
upperback -1.70227 1.91282 0.955154
thorax -7.20088 0.838191 -0.856586
lowerneck -5.69575 12.2802 9.11709
upperneck 5.20158 16.1514 -6.59802
head 3.73172 7.95675 -2.45808
rclavicle 1.11518e-013 1.98785e-015
rhumerus -18.3376 33.8527 -109.073
rradius 32.4445
rwrist 16.8798
rhand -4.51884 -55.3205
rfingers 7.12502
rthumb 21.2557 -444.175
lclavicle 1.11518e-013 1.98785e-015
lhumerus -52.7531 -58.6784 142.228
lradius 102.252
lwrist 22.6589
lhand 26.3943 -24.9081
lfingers 7.12502
lthumb 50.4381 -3.91851
rfemur -13.7307 1.52836 30.1941
rtibia 27.6453
rfoot -28.1616 -36.9395
rtoes 31.3927
lfemur -22.7626 4.25481 -21.2341
ltibia 50.2464
lfoot -27.9311 12.1222
ltoes -13.9474
1047
root 9.64431 15.3279 -37.0095 -350.531 -55.7018 -4.11106
lowerback 9.62541 1.08651 2.49118
upperback -1.77595 1.82993 1.12503
thorax -7.24167 0.812377 -0.504229
lowerneck -5.95716 11.9461 8.72049
upperneck 5.47431 15.6947 -6.21674
head 3.76036 7.73195 -2.30935
rclavicle 4.30617e-014 6.75868e-015
rhumerus -18.6501 34.6506 -109.196
rradius 32.5638
rwrist 16.6919
rhand -4.72594 -54.7333
rfingers 7.12502
rthumb 21.0567 -443.61
lclavicle 4.30617e-014 6.75868e-015
lhumerus -53.7212 -58.7225 142.213
lradius 103.196
lwrist 22.6573
lhand 26.2083 -25.1334
lfingers 7.12502
lthumb 50.2682 -4.05264
rfemur -13.9215 1.06665 30.1545
rtibia 27.6677
rfoot -28.6307 -37.1174
rtoes 33.0493
lfemur -22.5544 4.69921 -21.4838
ltibia 49.9755
lfoot -27.8125 12.8573
ltoes -12.2716
1048
root 9.65451 15.3252 -37.0303 -350.904 -54.5957 -3.92954
lowerback 9.85945 1.05089 2.47232
upperback -1.7764 1.7958 1.23645
thorax -7.38169 0.796775 -0.376154
lowerneck -6.06867 11.5808 8.32673
upperneck 5.58065 15.2022 -5.8436
head 3.71615 7.49336 -2.17964
rclavicle 3.07619e-014 -9.74045e-015
rhumerus -18.9091 35.2204 -109.325
rradius 32.64
rwrist 16.4307
rhand -5.05334 -54.5345
rfingers 7.12502
rthumb 20.7422 -443.446
lclavicle 3.07619e-014 -9.74045e-015
lhumerus -53.5065 -58.4837 142.249
lradius 103.052
lwrist 22.6374
lhand 26.6788 -24.9613
lfingers 7.12502
lthumb 50.6979 -4.11279
rfemur -13.8212 0.765976 30.2216
rtibia 27.774
rfoot -30.0111 -37.2865
rtoes 35.247
lfemur -22.0336 5.1586 -21.6046
ltibia 49.6498
lfoot -27.4364 13.5465
ltoes -11.309
1049
root 9.66623 15.3256 -37.0535 -350.882 -53.4384 -3.79053
lowerback 9.77969 1.03141 2.53823
upperback -1.90735 1.78377 1.30585
thorax -7.47681 0.787674 -0.337537
lowerneck -6.09349 11.1816 8.04035
upperneck 5.62028 14.663 -5.51509
head 3.64958 7.23395 -2.08663
rclavicle 2.82771e-014 -4.77083e-015
rhumerus -19.2155 35.5465 -109.449
rradius 32.7629
rwrist 16.1343
rhand -4.47045 -55.1534
rfingers 7.12502
rthumb 21.3021 -444.003
lclavicle 2.82771e-014 -4.77083e-015
lhumerus -52.9623 -57.7252 142.033
lradius 103.08
lwrist 22.3766
lhand 27.7816 -24.8721
lfingers 7.12502
lthumb 51.7018 -4.59097
rfemur -14.1607 0.592068 30.3302
rtibia 27.9512
rfoot -31.4192 -37.6796
rtoes 36.535
lfemur -21.9479 5.63326 -21.7088
ltibia 49.2428
lfoot -27.0308 13.9921
ltoes -12.4392
1050
root 9.67395 15.3249 -37.0671 -351.016 -52.4565 -3.4861
lowerback 9.60882 1.02551 2.47491
upperback -2.01708 1.7697 1.37193
thorax -7.50039 0.784417 -0.227432
lowerneck -6.087 10.8368 7.70403
upperneck 5.68047 14.2024 -5.153
head 3.58636 7.01397 -1.96975
rclavicle -2.41026e-014 -1.74931e-014
rhumerus -19.5868 35.8631 -109.611
rradius 32.8237
rwrist 15.8485
rhand -3.75259 -55.7678
rfingers 7.12502
rthumb 21.9915 -444.538
lclavicle -2.41026e-014 -1.74931e-014
lhumerus -53.1087 -58.3079 142.102
lradius 102.989
lwrist 22.5681
lhand 26.5144 -25.4924
lfingers 7.12502
lthumb 50.5478 -4.56211
rfemur -14.438 0.451362 30.2645
rtibia 28.1392
rfoot -32.0793 -38.134
rtoes 36.8131
lfemur -21.7125 5.73324 -21.9794
ltibia 48.7087
lfoot -26.9531 14.5328
ltoes -13.3739
1051
root 9.68615 15.3208 -37.0778 -351.577 -51.3647 -3.13361
lowerback 9.88097 0.987259 2.33403
upperback -1.99701 1.71741 1.47317
thorax -7.6438 0.765764 -0.0384355
lowerneck -6.26438 10.5074 7.41271
upperneck 5.62671 13.7355 -4.65259
head 3.90764 6.80649 -2.01344
rclavicle -4.50247e-014 -1.35174e-014
rhumerus -20.0427 36.5032 -109.765
rradius 32.2537
rwrist 17.339
rhand -4.72079 -54.8146
rfingers 7.12502
rthumb 21.0617 -443.691
lclavicle -4.50247e-014 -1.35174e-014
lhumerus -53.913 -58.5152 142.576
lradius 103.475
lwrist 22.9532
lhand 25.8445 -25.5022
lfingers 7.12502
lthumb 49.9354 -4.24561
rfemur -14.3217 0.196289 30.1438
rtibia 28.3452
rfoot -32.6647 -38.659
rtoes 37.3193
lfemur -21.0602 5.58309 -22.2346
ltibia 48.0453
lfoot -26.6553 14.8926
ltoes -14.6564
1052
root 9.69633 15.3182 -37.0856 -351.774 -50.3303 -2.91757
lowerback 9.19664 0.865926 3.08095
upperback -1.61362 1.57578 0.989202
thorax -6.81085 0.668868 -0.928839
lowerneck -6.55013 10.233 7.56993
upperneck 5.37396 13.2869 -4.22999
head 3.81779 6.59841 -1.9273
rclavicle 1.23271e-013 1.43125e-014
rhumerus -19.1676 36.4793 -110.022
rradius 31.9598
rwrist 17.6664
rhand -3.31677 -55.4028
rfingers 7.12502
rthumb 22.4099 -444.123
lclavicle 1.23271e-013 1.43125e-014
lhumerus -52.9561 -59.2538 141.077
lradius 103.477
lwrist 22.1732
lhand 24.9035 -26.1333
lfingers 7.12502
lthumb 49.0725 -4.43686
rfemur -14.5148 -0.132047 30.1186
rtibia 28.5956
rfoot -32.266 -39.5403
rtoes 36.5158
lfemur -20.6948 5.43248 -22.407
ltibia 47.2583
lfoot -26.0726 14.8094
ltoes -15.2599
1053
root 9.70946 15.3129 -37.0983 -351.869 -49.2621 -2.7221
lowerback 9.23537 0.809293 2.96326
upperback -1.71633 1.49841 1.10098
thorax -6.95107 0.634985 -0.735526
lowerneck -6.70368 9.9289 7.36424
upperneck 5.55357 12.8723 -3.98641
head 3.84493 6.39647 -1.83389
rclavicle 9.54166e-015 8.74653e-015
rhumerus -19.0891 36.2123 -109.936
rradius 32.3627
rwrist 17.8527
rhand 1.11997 -58.6238
rfingers 7.12502
rthumb 26.6627 -446.766
lclavicle 9.54166e-015 8.74653e-015
lhumerus -52.9105 -56.7957 140.765
lradius 103.274
lwrist 20.4307
lhand 28.1305 -26.5861
lfingers 7.12502
lthumb 52.0185 -6.49148
rfemur -14.8106 -0.57601 30.1191
rtibia 28.8646
rfoot -31.9203 -40.2737
rtoes 35.8639
lfemur -20.4642 5.18235 -22.556
ltibia 46.3932
lfoot -25.705 14.6571
ltoes -17.5104
1054
root 9.72548 15.3087 -37.1115 -352.047 -48.1416 -2.46903
lowerback 9.37034 0.731312 2.84291
upperback -1.79049 1.39339 1.1847
thorax -7.11572 0.587358 -0.567001
lowerneck -6.97079 9.59528 6.96745
upperneck 5.70177 12.4078 -3.49685
head 3.84509 6.17353 -1.62637
rclavicle 1.38006e-013 1.15295e-014
rhumerus -19.1136 35.9436 -109.774
rradius 31.3249
rwrist 17.3772
rhand -2.09573 -53.0443
rfingers 7.12502
rthumb 23.5816 -441.618
lclavicle 1.38006e-013 1.15295e-014
lhumerus -52.5256 -56.6045 140.61
lradius 102.889
lwrist 20.1457
lhand 27.7694 -26.9933
lfingers 7.12502
lthumb 51.6908 -6.70574
rfemur -15.0267 -0.955071 30.0483
rtibia 29.1205
rfoot -33.3609 -40.2581
rtoes 37.877
lfemur -20.2319 4.81884 -22.7396
ltibia 45.474
lfoot -25.7195 14.7092
ltoes -20.7808
1055
root 9.73828 15.3056 -37.1198 -352.196 -47.1294 -2.25601
lowerback 8.84784 0.657406 3.21778
upperback -1.48408 1.29218 0.947394
thorax -6.48076 0.530503 -1.00123
lowerneck -7.33137 9.29905 6.53892
upperneck 5.51361 11.9578 -2.68574
head 3.72134 5.96736 -1.31095
rclavicle 5.36222e-014 7.15625e-015
rhumerus -18.3927 35.6623 -109.596
rradius 31.134
rwrist 18.6505
rhand -2.01174 -51.4305
rfingers 7.12502
rthumb 23.6621 -439.994
lclavicle 5.36222e-014 7.15625e-015
lhumerus -52.0323 -57.7932 139.898
lradius 102.982
lwrist 21.6434
lhand 27.0709 -26.3631
lfingers 7.12502
lthumb 51.0553 -5.71265
rfemur -15.2102 -1.24504 29.9704
rtibia 29.3614
rfoot -34.7193 -40.2595
rtoes 39.7048
lfemur -19.9771 4.60612 -22.9045
ltibia 44.5271
lfoot -25.8059 14.8577
ltoes -23.0046
